<svg version="1.1" xmlns="http://www.w3.org/2000/svg" width="192" height="192" viewBox="0 0 192 192">
<title></title>
<g id="icomoon-ignore">
</g>
<path fill="#C0BFBF" d="M181.443 57.701l-15.104-15.103-29.83 29.831-16.938-16.939 29.83-29.83-15.103-15.103-29.83 29.83-19.149-19.15-14.456 14.456 85.444 85.443 14.456-14.456-19.15-19.15 29.831-29.83z"></path>
<path fill="#C0BFBF" d="M143.067 123l-74.066-74.066c-15.99 19.175-34.131 48.805-21.594 74.298l-22.070 22.070c-5.192 5.192-5.192 13.688 0 18.88l2.479 2.48c5.192 5.192 13.689 5.192 18.881 0l22.069-22.069c25.494 12.538 55.124-5.602 74.3-21.593z"></path>
</svg>
